<svg xmlns="http://www.w3.org/2000/svg" version="1.1" xmlns:xlink="http://www.w3.org/1999/xlink" xmlns:svgjs="http://svgjs.com/svgjs" width="249.06" height="249"><svg id="SvgjsSvg1000" data-name="Layer 1" xmlns="http://www.w3.org/2000/svg" viewBox="0 0 249.06 249"><defs><style>.cls-1{fill:#7532fa;}.cls-2{fill:#fff;}</style></defs><path class="cls-1" d="M353.3,375H147.61a21.69,21.69,0,0,1-21.69-21.68V147.68A21.69,21.69,0,0,1,147.61,126H353.3A21.68,21.68,0,0,1,375,147.68V353.32A21.68,21.68,0,0,1,353.3,375Z" transform="translate(-125.92 -126)"></path><path class="cls-2" d="M313.66,202.53c0,26.79-97,26.79-97,0a48.52,48.52,0,0,1,97,0Z" transform="translate(-125.92 -126)"></path><rect class="cls-2" x="119.54" y="106.71" width="39.89" height="114.26" rx="9.65"></rect><path class="cls-2" d="M209.06,330.81h0c-12.05,0-21.81-53.65-21.81-53.65a21.81,21.81,0,0,1,21.81-21.81h0c12.05,0,21.82,53.64,21.82,53.64A21.82,21.82,0,0,1,209.06,330.81Z" transform="translate(-125.92 -126)"></path></svg><style>@media (prefers-color-scheme: light) { :root { filter: none; } }
</style></svg>