<?xml version="1.0" standalone="no"?>
<!DOCTYPE svg PUBLIC "-//W3C//DTD SVG 20010904//EN"
 "http://www.w3.org/TR/2001/REC-SVG-20010904/DTD/svg10.dtd">
<svg version="1.0" xmlns="http://www.w3.org/2000/svg"
 width="1039.000000pt" height="1039.000000pt" viewBox="0 0 1039.000000 1039.000000"
 preserveAspectRatio="xMidYMid meet">
<metadata>
Created by potrace 1.14, written by Peter Selinger 2001-2017
</metadata>
<g transform="translate(0.000000,1039.000000) scale(0.100000,-0.100000)"
fill="#000000" stroke="none">
<path d="M785 10383 c-16 -2 -64 -12 -105 -23 -339 -86 -606 -378 -660 -722
-8 -54 -10 -1228 -8 -4483 l3 -4410 23 -73 c86 -277 278 -489 538 -593 159
-64 -214 -59 4622 -59 3713 0 4417 3 4472 14 345 73 623 352 695 697 13 62 15
618 15 4470 0 4875 6 4468 -65 4632 -49 116 -91 181 -174 269 -88 94 -221 185
-332 228 -168 65 187 60 -4623 59 -2404 -1 -4384 -4 -4401 -6z m5304 -1179
c453 -66 848 -268 1166 -595 172 -177 274 -321 375 -531 156 -322 240 -779
184 -993 -41 -161 -183 -306 -410 -422 -819 -419 -2531 -396 -3275 44 -95 55
-223 171 -268 241 -60 94 -74 152 -73 297 7 974 753 1816 1735 1959 131 20
435 20 566 0z m-84 -3281 c163 -37 297 -115 423 -247 88 -94 154 -208 194
-336 l23 -75 3 -1660 c3 -1249 0 -1677 -9 -1730 -34 -203 -152 -400 -312 -521
-74 -56 -217 -126 -307 -148 -36 -9 -105 -20 -155 -23 -396 -25 -762 248 -855
637 -20 84 -20 112 -20 1746 0 1601 1 1663 19 1735 30 115 58 182 111 263 193
296 538 436 885 359z m-2460 -937 c243 -102 515 -755 750 -1806 68 -304 79
-388 65 -512 -15 -132 -34 -198 -96 -323 -62 -126 -133 -216 -239 -300 -139
-110 -340 -183 -515 -188 -73 -1 -92 2 -130 22 -245 129 -504 776 -751 1871
-86 384 -58 620 102 860 129 193 325 324 559 374 87 19 212 20 255 2z"/>
</g>
</svg>
