<?xml version="1.0" standalone="no"?>
<!DOCTYPE svg PUBLIC "-//W3C//DTD SVG 20010904//EN"
 "http://www.w3.org/TR/2001/REC-SVG-20010904/DTD/svg10.dtd">
<svg version="1.0" xmlns="http://www.w3.org/2000/svg"
 width="955.000000pt" height="955.000000pt" viewBox="0 0 955.000000 955.000000"
 preserveAspectRatio="xMidYMid meet">
<metadata>
Created by potrace 1.14, written by Peter Selinger 2001-2017
</metadata>
<g transform="translate(0.000000,955.000000) scale(0.100000,-0.100000)"
fill="#000000" stroke="none">
<path d="M2929 9537 c-63 -9 -84 -24 -66 -47 18 -23 150 -121 347 -257 238
-163 1122 -750 1211 -803 14 -8 80 -51 147 -95 68 -44 164 -107 215 -140 122
-80 800 -516 831 -535 14 -8 120 -76 235 -150 116 -74 264 -169 329 -210 65
-41 257 -163 426 -270 168 -107 319 -202 334 -211 15 -9 106 -66 202 -127 96
-61 357 -224 580 -363 223 -139 424 -265 448 -281 24 -15 45 -28 48 -28 3 0
31 -17 62 -38 31 -21 112 -71 180 -112 68 -41 138 -84 156 -95 149 -91 656
-395 660 -395 2 0 34 -18 70 -40 65 -40 158 -85 186 -92 45 -10 -8 146 -100
298 -22 36 -40 68 -40 71 0 7 -137 208 -214 313 -137 187 -396 504 -541 659
-230 248 -565 581 -705 701 -14 12 -38 33 -55 48 -110 98 -135 119 -295 251
-41 34 -84 69 -95 79 -11 9 -100 76 -197 149 -327 246 -711 494 -1048 676 -30
16 -59 33 -65 37 -44 33 -567 284 -785 377 -574 246 -1317 482 -1760 559 -14
3 -32 7 -40 9 -8 3 -32 7 -54 11 -21 3 -46 7 -55 9 -9 1 -52 8 -96 15 -44 6
-91 13 -105 15 -27 5 -176 15 -251 18 -25 1 -70 -1 -100 -6z"/>
<path d="M6098 6648 c-7 -19 7 -306 17 -358 2 -8 6 -53 10 -100 3 -47 8 -101
10 -120 2 -19 7 -64 10 -100 3 -36 8 -76 10 -90 2 -14 7 -54 10 -90 4 -36 8
-78 10 -95 12 -111 16 -146 21 -190 3 -27 7 -61 9 -75 2 -14 6 -54 10 -90 4
-36 8 -76 10 -90 2 -14 6 -52 10 -85 3 -33 8 -71 10 -85 2 -14 6 -50 9 -80 3
-30 8 -68 10 -85 2 -16 7 -59 11 -95 3 -36 8 -72 10 -80 2 -8 6 -42 10 -75 3
-33 8 -71 10 -85 2 -14 7 -52 10 -85 9 -79 11 -98 30 -247 7 -50 15 -114 20
-160 3 -21 7 -57 10 -80 7 -55 14 -113 20 -160 3 -21 7 -55 10 -75 11 -94 16
-130 20 -153 2 -14 7 -50 10 -80 3 -30 8 -66 10 -80 2 -14 7 -49 10 -79 4 -30
8 -62 10 -72 2 -10 6 -42 10 -71 3 -29 7 -68 10 -86 6 -43 24 -187 31 -237 3
-22 7 -51 9 -65 2 -14 11 -79 20 -145 8 -66 17 -131 19 -145 3 -14 7 -47 11
-75 9 -71 31 -235 40 -295 2 -14 9 -61 15 -105 6 -44 12 -91 15 -105 3 -21 13
-92 30 -210 2 -14 7 -45 11 -70 4 -25 8 -52 9 -60 7 -56 17 -126 21 -144 4
-20 13 -80 19 -121 4 -29 47 -287 50 -305 2 -8 11 -54 21 -102 11 -56 22 -88
30 -88 37 0 113 152 185 371 77 232 145 515 200 829 26 148 27 155 34 215 4
28 8 61 10 75 2 14 6 50 10 80 3 30 8 71 10 90 2 19 7 67 10 105 4 39 8 86 10
105 11 102 18 311 18 515 0 266 -7 422 -29 630 -12 117 -37 297 -50 365 -2 14
-6 36 -9 50 -3 14 -9 48 -15 75 -6 28 -12 59 -14 70 -19 92 -39 182 -56 245
-12 41 -22 82 -24 90 -2 8 -12 42 -22 75 -10 33 -19 65 -20 70 -15 75 -188
542 -256 689 -117 257 -286 560 -406 730 -151 214 -303 352 -324 294z"/>
<path d="M100 4299 c-67 -8 -90 -17 -90 -34 0 -30 202 -173 890 -630 578 -383
779 -515 786 -515 3 0 10 -5 17 -11 7 -6 80 -54 162 -108 234 -152 469 -303
530 -341 31 -19 257 -164 503 -322 469 -300 1072 -684 1272 -808 22 -14 108
-68 191 -120 82 -52 165 -104 183 -115 18 -11 231 -143 472 -294 625 -391 626
-391 629 -391 2 0 64 -37 137 -83 73 -45 180 -111 238 -145 58 -35 112 -68
120 -73 102 -61 302 -179 305 -179 2 0 28 -14 57 -32 74 -44 165 -88 183 -88
35 0 3 116 -66 237 -74 133 -125 212 -274 423 -36 51 -155 209 -180 237 -5 7
-15 18 -20 25 -59 73 -151 185 -159 194 -6 7 -33 38 -61 70 -112 131 -280 310
-470 499 -209 208 -248 245 -405 385 -52 47 -97 87 -100 90 -43 45 -399 328
-585 465 -239 175 -736 498 -845 548 -8 4 -31 17 -50 28 -104 64 -545 288
-710 361 -19 9 -62 28 -95 43 -328 148 -891 355 -1210 445 -120 34 -284 78
-310 85 -16 4 -37 9 -45 11 -31 7 -106 26 -120 29 -26 6 -211 45 -239 50 -129
24 -194 35 -281 46 -66 9 -114 13 -270 22 -19 2 -60 0 -90 -4z"/>
</g>
</svg>
