<?xml version="1.0" standalone="no"?>
<!DOCTYPE svg PUBLIC "-//W3C//DTD SVG 20010904//EN"
 "http://www.w3.org/TR/2001/REC-SVG-20010904/DTD/svg10.dtd">
<svg version="1.0" xmlns="http://www.w3.org/2000/svg"
 width="1642.000000pt" height="1642.000000pt" viewBox="0 0 1642.000000 1642.000000"
 preserveAspectRatio="xMidYMid meet">
<metadata>
Created by potrace 1.14, written by Peter Selinger 2001-2017
</metadata>
<g transform="translate(0.000000,1642.000000) scale(0.100000,-0.100000)"
fill="#000000" stroke="none">
<path d="M8097 16414 c-1 -1 -87 -4 -192 -8 -104 -3 -208 -8 -230 -10 -22 -2
-85 -7 -140 -11 -55 -4 -107 -8 -116 -10 -9 -2 -52 -6 -95 -10 -43 -4 -86 -9
-95 -10 -9 -2 -40 -6 -70 -10 -30 -3 -65 -8 -79 -10 -14 -2 -45 -7 -70 -10
-25 -3 -94 -15 -155 -25 -60 -11 -126 -22 -145 -25 -59 -9 -281 -56 -345 -72
-33 -8 -67 -16 -75 -18 -8 -2 -53 -13 -100 -25 -47 -12 -92 -23 -101 -25 -43
-9 -349 -102 -478 -146 -80 -28 -150 -52 -156 -53 -5 -2 -17 -6 -25 -9 -8 -4
-42 -16 -75 -27 -33 -12 -69 -25 -80 -30 -11 -5 -45 -19 -75 -30 -374 -147
-848 -381 -1197 -591 -252 -153 -507 -325 -723 -488 -86 -65 -326 -256 -346
-276 -6 -5 -35 -30 -64 -55 -29 -25 -58 -49 -64 -55 -165 -148 -248 -227 -377
-355 -139 -138 -188 -190 -343 -360 -119 -130 -378 -452 -521 -647 -143 -196
-386 -575 -510 -798 -318 -570 -562 -1159 -738 -1780 -42 -148 -60 -214 -73
-273 -2 -13 -17 -78 -33 -145 -16 -67 -31 -138 -35 -157 -8 -47 -14 -75 -27
-139 -6 -30 -12 -64 -14 -75 -2 -12 -12 -77 -24 -146 -19 -119 -27 -172 -36
-250 -13 -117 -17 -148 -20 -170 -7 -52 -17 -170 -31 -375 -11 -152 -11 -824
-1 -970 18 -264 25 -339 41 -470 3 -22 8 -65 11 -95 3 -30 10 -80 15 -110 5
-30 12 -77 16 -105 3 -27 8 -59 10 -70 2 -11 9 -47 14 -80 13 -79 19 -111 31
-163 5 -23 12 -59 15 -80 3 -20 10 -55 16 -77 5 -22 12 -51 15 -65 13 -79 107
-438 153 -585 5 -16 19 -61 30 -100 12 -38 25 -79 30 -90 4 -11 27 -76 51
-145 42 -125 184 -486 234 -596 123 -272 288 -598 362 -716 13 -21 23 -40 23
-42 0 -19 291 -479 403 -636 152 -213 410 -546 502 -646 5 -6 39 -44 75 -85
263 -300 657 -676 995 -950 315 -256 755 -557 1070 -734 549 -308 999 -508
1541 -685 104 -34 196 -63 204 -65 8 -2 62 -17 120 -34 172 -48 448 -114 615
-147 11 -2 43 -8 70 -14 28 -5 66 -12 85 -15 19 -3 60 -10 90 -15 30 -5 73
-12 95 -15 22 -3 47 -7 55 -10 8 -2 40 -6 71 -10 31 -3 67 -8 79 -10 12 -2 49
-7 83 -10 34 -3 73 -8 87 -10 14 -2 63 -7 110 -10 47 -4 96 -8 110 -10 14 -2
75 -7 135 -10 392 -23 872 -19 1195 10 30 3 84 7 120 10 35 3 78 8 95 10 16 2
51 7 78 10 119 13 145 17 197 25 30 6 75 12 100 15 25 3 83 12 130 21 47 9 98
18 114 20 15 2 35 6 45 8 9 3 30 8 46 11 35 6 47 8 145 29 41 9 113 25 160 36
47 11 93 22 102 25 244 58 628 180 923 292 573 220 1083 483 1605 829 463 306
843 618 1250 1024 203 202 267 270 385 405 33 37 76 87 96 109 152 174 390
490 564 751 107 159 305 478 305 491 0 2 11 21 23 42 54 85 231 431 310 607
85 189 94 210 170 400 130 327 289 827 342 1075 2 8 9 38 15 65 6 28 14 61 16
75 3 14 10 45 15 70 6 25 13 54 15 65 8 38 52 280 64 355 7 41 14 83 16 94 2
10 6 44 10 75 3 31 8 65 10 76 2 11 6 45 9 75 3 30 8 70 10 89 3 18 7 59 10
90 3 31 7 79 10 106 6 62 14 192 20 310 7 122 7 680 0 785 -12 201 -29 419
-40 500 -2 19 -7 60 -10 90 -3 30 -10 82 -15 115 -5 33 -12 78 -15 100 -2 22
-7 51 -9 65 -3 14 -8 43 -11 65 -8 58 -25 152 -45 250 -14 67 -19 94 -26 130
-3 17 -19 86 -35 155 -17 69 -32 132 -34 140 -5 23 -81 295 -105 375 -11 39
-22 77 -25 85 -13 47 -141 413 -155 445 -5 11 -32 76 -59 145 -130 329 -289
655 -515 1055 -6 11 -48 81 -94 155 -46 74 -89 144 -95 155 -7 10 -29 43 -49
72 -21 29 -38 54 -38 57 0 9 -138 204 -248 351 -156 208 -364 459 -512 620
-69 75 -479 486 -540 541 -181 163 -373 321 -651 534 -38 29 -73 54 -222 155
-72 50 -136 94 -142 98 -22 18 -276 176 -346 217 -258 149 -549 300 -769 399
-63 29 -128 58 -145 66 -210 95 -625 245 -930 335 -149 45 -506 136 -571 146
-22 3 -42 8 -45 10 -3 2 -21 6 -40 9 -19 3 -68 13 -109 21 -41 9 -93 18 -115
20 -22 3 -47 7 -55 10 -8 3 -33 7 -55 10 -22 3 -62 9 -90 14 -27 5 -74 12
-104 15 -30 4 -61 8 -70 10 -9 1 -47 6 -84 10 -37 3 -76 8 -85 10 -9 1 -53 6
-97 10 -44 3 -98 8 -120 10 -142 15 -777 37 -788 29z m-458 -7327 c0 -3329 -4
-6043 -9 -6032 -4 11 -78 207 -165 435 -86 228 -167 442 -180 475 -28 72 -231
610 -396 1050 -66 176 -125 329 -129 340 -5 11 -37 94 -71 185 -33 91 -67 179
-74 195 -7 17 -28 73 -48 125 -76 204 -178 476 -184 490 -3 8 -14 35 -23 60
-47 125 -139 368 -148 390 -6 14 -45 117 -87 230 -42 113 -87 232 -100 265
-13 33 -49 128 -80 210 -30 83 -58 157 -62 165 -3 8 -7 20 -9 25 -1 6 -24 64
-49 130 -26 66 -94 246 -151 400 -58 154 -111 294 -118 310 -8 17 -26 64 -41
105 -15 41 -38 102 -50 135 -25 64 -142 374 -205 540 -90 241 -159 422 -169
445 -6 14 -26 70 -46 125 -20 55 -40 109 -45 120 -5 11 -60 153 -121 315 -61
162 -149 396 -196 520 -47 124 -134 353 -193 510 -59 157 -154 407 -210 555
-56 149 -144 380 -195 515 -51 135 -146 385 -210 555 -156 410 -177 466 -182
490 -3 15 16 36 83 90 47 39 91 75 98 80 6 6 40 33 76 60 36 27 67 52 70 55 9
10 311 223 385 271 125 81 160 104 170 109 9 5 63 37 158 94 87 52 308 170
441 235 143 70 408 189 436 196 3 0 43 16 90 34 257 101 721 247 880 277 13 3
63 14 110 25 93 22 263 56 313 63 18 3 41 7 52 9 11 3 42 8 68 11 27 4 56 9
65 10 28 5 104 16 157 21 28 3 61 8 75 10 14 2 59 7 100 10 41 4 76 8 77 9 1
1 11 2 23 3 l20 2 -1 -6052z m1356 6029 c72 -8 145 -17 165 -21 8 -1 40 -6 70
-10 30 -4 64 -9 75 -11 11 -3 36 -7 55 -10 19 -3 46 -7 60 -10 14 -2 41 -7 60
-10 161 -27 526 -116 735 -179 240 -72 571 -193 740 -270 17 -7 77 -34 135
-60 404 -181 890 -468 1260 -745 118 -89 389 -308 422 -341 l28 -28 -31 -83
c-17 -46 -44 -119 -60 -163 -16 -44 -34 -89 -39 -100 -5 -11 -59 -153 -120
-315 -61 -162 -142 -376 -180 -475 -38 -99 -75 -198 -83 -220 -25 -70 -388
-1029 -397 -1050 -5 -11 -57 -148 -116 -305 -58 -157 -112 -298 -119 -315 -7
-16 -20 -52 -29 -79 -9 -26 -21 -57 -27 -68 -6 -11 -12 -27 -14 -36 -2 -9 -56
-154 -120 -322 -64 -168 -125 -327 -135 -355 -10 -27 -53 -140 -95 -250 -42
-110 -94 -247 -115 -305 -21 -58 -71 -188 -110 -290 -39 -102 -75 -196 -80
-210 -4 -14 -76 -205 -160 -425 -84 -220 -183 -481 -220 -580 -37 -99 -127
-337 -199 -530 -73 -192 -136 -359 -141 -370 -5 -11 -36 -94 -70 -185 -35 -91
-78 -204 -96 -252 -19 -49 -34 -91 -34 -94 0 -3 -6 -20 -14 -37 -8 -18 -42
-105 -75 -193 -33 -89 -65 -172 -70 -185 -6 -13 -45 -116 -87 -229 -42 -113
-97 -257 -121 -320 -24 -63 -45 -119 -46 -125 -2 -5 -5 -14 -8 -20 -4 -5 -12
-28 -19 -50 -7 -22 -18 -53 -26 -70 -7 -16 -36 -93 -65 -170 -28 -77 -56 -151
-62 -165 -6 -14 -11 -29 -13 -35 -1 -5 -23 -64 -49 -130 -65 -166 -195 -512
-195 -518 0 -2 -8 -22 -17 -43 -9 -22 -18 -43 -19 -49 -2 -5 -39 -104 -84
-220 -44 -115 -88 -229 -96 -252 -8 -24 -23 -62 -33 -85 -18 -42 -18 129 -19
5962 0 3303 2 6008 4 6012 3 4 12 5 22 4 9 -2 44 -7 77 -10z m5603 -4168 c38
-90 83 -201 101 -248 18 -47 37 -94 42 -105 15 -35 107 -316 143 -440 67 -227
144 -563 171 -740 4 -22 10 -58 15 -80 5 -22 12 -67 15 -100 4 -33 9 -62 10
-65 2 -3 6 -37 10 -75 4 -39 9 -78 10 -87 5 -22 20 -189 32 -348 9 -119 10
-752 0 -885 -10 -146 -14 -205 -22 -273 -16 -149 -24 -220 -35 -282 -5 -30
-12 -75 -15 -100 -31 -245 -151 -742 -255 -1060 -92 -283 -223 -607 -344 -855
l-64 -130 -1 3135 0 3135 59 -117 c32 -64 89 -190 128 -280z m-12614 -2738 c1
-1683 -2 -3060 -5 -3060 -16 0 -190 397 -287 658 -89 238 -207 626 -238 782
-3 14 -11 50 -19 80 -17 68 -64 303 -70 349 -2 18 -7 41 -9 50 -3 9 -8 39 -12
66 -3 28 -7 59 -9 70 -1 11 -6 43 -9 70 -4 28 -9 64 -11 80 -5 34 -11 90 -20
185 -3 36 -8 83 -10 105 -25 241 -25 867 0 1135 9 93 25 253 29 285 3 17 7 55
11 85 4 30 9 62 10 70 3 18 15 92 21 135 15 105 75 386 128 600 48 193 195
648 247 762 10 23 19 45 19 48 0 11 111 268 166 384 30 62 54 118 54 124 0 6
3 7 6 4 4 -4 7 -1384 8 -3067z m1324 2725 c33 -88 113 -299 178 -470 64 -170
127 -337 139 -370 12 -33 82 -217 155 -410 73 -192 154 -406 180 -475 178
-473 310 -821 320 -845 5 -11 106 -279 225 -595 119 -316 227 -602 240 -635
13 -33 74 -193 135 -355 61 -162 115 -306 121 -320 6 -13 29 -74 50 -135 22
-60 44 -119 49 -130 5 -11 60 -153 121 -315 132 -351 210 -557 359 -951 62
-162 117 -310 124 -329 7 -19 46 -120 85 -225 40 -104 138 -363 218 -575 80
-212 161 -423 178 -470 18 -47 98 -258 178 -470 80 -212 174 -461 210 -555 36
-93 117 -309 182 -480 64 -170 127 -338 141 -373 13 -34 24 -64 24 -66 0 -10
-347 67 -520 116 -58 16 -112 31 -120 33 -179 43 -586 192 -869 317 -169 75
-542 261 -575 287 -6 5 -38 23 -71 40 -184 97 -610 382 -805 538 -30 24 -73
59 -95 76 -182 146 -391 333 -545 487 l-85 85 0 3872 c0 2130 3 3869 6 3865 4
-4 34 -79 67 -167z m9849 -3870 l0 -3735 -91 -87 c-100 -96 -227 -214 -272
-253 -16 -14 -59 -50 -94 -80 -36 -30 -70 -59 -76 -65 -74 -65 -338 -263 -489
-367 -600 -413 -1292 -741 -1986 -941 -135 -39 -209 -59 -216 -58 -2 0 -17 -5
-35 -10 -37 -11 -238 -57 -280 -64 -26 -5 -27 -4 -17 22 6 16 59 156 119 313
59 157 167 443 241 635 73 193 142 377 154 410 37 101 135 359 145 380 9 22
208 549 246 655 13 36 28 74 33 85 5 11 53 137 106 280 53 143 101 269 106
280 8 19 359 945 535 1415 47 124 89 234 94 245 9 20 143 376 185 490 45 124
237 631 245 650 9 19 53 134 55 145 1 3 5 12 8 20 4 8 81 213 172 455 91 242
169 449 174 460 11 25 35 88 37 95 0 3 6 19 13 35 6 17 16 44 22 60 6 17 15
39 19 50 5 11 18 47 30 80 13 33 27 69 31 80 5 11 52 135 104 275 52 140 98
262 102 270 3 8 7 17 8 20 1 3 4 12 8 20 3 8 45 119 92 245 48 127 121 318
162 425 41 107 76 202 78 210 3 8 30 80 60 160 31 80 74 193 96 251 45 124 68
179 72 179 2 0 4 -1681 4 -3735z"/>
</g>
</svg>
