<?xml version="1.0" standalone="no"?>
<!DOCTYPE svg PUBLIC "-//W3C//DTD SVG 20010904//EN"
 "http://www.w3.org/TR/2001/REC-SVG-20010904/DTD/svg10.dtd">
<svg version="1.0" xmlns="http://www.w3.org/2000/svg"
 width="1848.000000pt" height="1848.000000pt" viewBox="0 0 1848.000000 1848.000000"
 preserveAspectRatio="xMidYMid meet">
<metadata>
Created by potrace 1.14, written by Peter Selinger 2001-2017
</metadata>
<g transform="translate(0.000000,1848.000000) scale(0.100000,-0.100000)"
fill="#000000" stroke="none">
<path d="M1169 18465 c-3 -2 -23 -7 -45 -10 -134 -20 -308 -112 -419 -220
-163 -158 -245 -346 -251 -575 -4 -170 15 -252 103 -438 29 -62 53 -114 53
-116 0 -2 24 -55 54 -117 29 -63 65 -139 79 -169 14 -30 44 -95 67 -145 23
-49 53 -115 67 -145 14 -30 46 -98 71 -150 24 -52 55 -117 67 -145 33 -72 274
-591 334 -718 28 -59 51 -109 51 -111 0 -2 26 -59 59 -127 72 -153 148 -315
211 -454 10 -22 42 -89 70 -150 29 -60 72 -154 96 -208 l44 -98 -20 -67 c-12
-37 -24 -85 -28 -107 -10 -56 -9 -13449 1 -13509 30 -184 132 -354 302 -501
90 -78 278 -156 415 -173 111 -13 13395 -7 13465 6 220 43 437 191 552 377 40
63 86 174 105 251 l22 89 0 6710 0 6710 -23 90 c-13 50 -30 102 -37 117 -15
29 -22 11 111 293 26 55 69 149 97 209 27 61 77 166 109 234 32 68 59 125 59
127 0 2 24 54 54 117 29 62 65 138 78 168 26 57 135 292 193 415 158 340 183
394 271 583 72 154 141 303 189 407 15 33 50 107 77 165 76 161 125 273 138
316 162 554 -266 1100 -840 1071 -58 -3 -137 -14 -176 -25 -75 -20 -218 -86
-269 -125 -52 -39 -170 -160 -204 -210 -31 -46 -107 -201 -229 -467 -13 -30
-51 -110 -83 -178 -33 -68 -59 -125 -59 -127 0 -2 -23 -52 -51 -112 -28 -59
-64 -135 -79 -168 -15 -33 -44 -96 -65 -140 -20 -44 -77 -165 -125 -270 -48
-104 -107 -230 -130 -280 -36 -77 -118 -253 -267 -575 -20 -41 -50 -106 -68
-145 -18 -38 -47 -101 -65 -140 -117 -253 -164 -353 -209 -447 -28 -59 -57
-123 -65 -143 l-15 -35 -5763 0 -5763 0 -54 118 c-30 64 -86 182 -123 261 -37
79 -68 144 -68 146 0 2 -25 56 -56 121 -31 66 -78 166 -104 224 -26 58 -75
163 -109 234 -34 70 -61 130 -61 132 0 3 -34 77 -137 294 -20 41 -62 134 -95
205 -33 72 -72 157 -88 190 -15 33 -44 94 -63 135 -19 41 -69 149 -112 240
-42 91 -86 185 -97 210 -11 25 -45 96 -74 159 -30 62 -54 115 -54 117 0 2 -26
58 -59 126 -32 68 -72 153 -89 189 -80 178 -226 326 -406 410 -114 54 -190 71
-332 75 -72 2 -133 2 -135 -1z m7249 -5259 c4 -4 7 -8847 3 -8926 -1 -8 -10 3
-20 25 -23 50 -67 144 -186 400 -51 110 -112 241 -135 290 -40 86 -60 129
-135 290 -18 39 -45 97 -61 130 -15 33 -28 62 -29 65 0 3 -6 14 -12 25 -6 11
-33 70 -61 130 -28 61 -71 155 -97 210 -26 55 -57 123 -70 150 -117 252 -353
760 -395 850 -62 131 -101 217 -125 270 -13 28 -46 100 -75 160 -29 61 -72
153 -95 206 -24 53 -71 154 -104 224 -34 70 -61 128 -61 130 0 1 -26 58 -59
126 -32 68 -112 239 -176 379 -65 140 -144 311 -176 379 -33 68 -59 125 -59
126 0 1 -26 58 -59 126 -32 68 -70 149 -84 179 -79 172 -150 326 -187 405 -23
50 -56 119 -72 155 -17 36 -91 196 -165 355 -74 160 -143 308 -153 330 -10 22
-46 98 -79 169 -34 70 -61 130 -61 131 0 2 -29 65 -65 140 -36 75 -65 138 -65
140 0 2 -29 65 -65 140 -36 75 -65 137 -65 139 0 2 -27 62 -61 132 -34 71 -95
203 -136 293 -41 90 -83 180 -93 200 -10 20 -43 90 -73 156 -30 66 -73 158
-95 205 -22 47 -99 213 -172 370 -73 157 -165 355 -205 440 -40 85 -69 157
-65 160 11 7 4141 3 4148 -4z m5812 5 c0 -4 -71 -163 -120 -266 -43 -92 -85
-182 -128 -275 -16 -36 -49 -105 -72 -155 -23 -49 -53 -115 -67 -145 -14 -30
-46 -98 -70 -150 -25 -52 -56 -117 -68 -145 -12 -27 -40 -86 -61 -130 -20 -44
-38 -82 -39 -85 0 -3 -15 -34 -32 -70 -48 -101 -123 -262 -123 -265 0 -1 -31
-69 -70 -149 -38 -81 -70 -149 -70 -151 0 -2 -22 -50 -49 -107 -27 -57 -62
-132 -79 -168 -16 -36 -48 -103 -69 -150 -22 -47 -48 -103 -58 -125 -10 -22
-47 -100 -82 -174 -34 -73 -63 -135 -63 -138 0 -2 -18 -41 -40 -86 -45 -94
-109 -231 -185 -397 -29 -64 -74 -160 -100 -215 -26 -55 -58 -122 -70 -150
-12 -27 -99 -214 -193 -415 -171 -368 -335 -722 -399 -860 -20 -41 -51 -109
-70 -150 -19 -41 -55 -117 -79 -168 -24 -51 -44 -95 -44 -97 0 -2 -24 -55 -54
-117 -30 -62 -97 -205 -149 -318 -52 -113 -114 -245 -137 -295 -51 -108 -99
-212 -129 -280 -13 -27 -27 -58 -32 -68 -5 -10 -66 -140 -135 -290 -180 -388
-177 -382 -229 -492 -26 -55 -77 -163 -112 -240 -114 -246 -150 -324 -225
-485 -22 -47 -53 -113 -69 -147 -65 -140 -90 -195 -164 -353 -42 -91 -90 -194
-106 -230 -17 -36 -45 -96 -64 -135 l-34 -70 0 4452 c-1 2959 2 4452 9 4455
14 4 4130 4 4130 -1z m797 -6898 l-2 -4638 -2157 -1 -2157 -2 9 22 c4 11 33
74 64 140 31 65 56 119 56 121 0 2 32 69 70 150 39 81 70 148 70 150 0 1 24
54 53 116 30 63 62 132 72 154 10 22 37 78 60 125 22 47 42 88 43 92 2 9 36
81 102 223 23 50 52 113 65 140 12 28 41 91 65 140 23 50 52 113 65 140 35 76
103 223 135 290 69 146 354 758 403 865 13 30 72 156 130 280 57 124 116 250
129 280 14 30 41 89 61 130 108 230 190 407 272 585 117 251 159 342 200 430
73 156 239 513 255 550 10 22 40 87 68 145 27 58 60 128 72 155 13 28 49 106
81 174 33 68 59 125 59 126 0 2 27 60 60 130 33 70 60 128 60 130 0 1 24 54
54 116 29 63 67 144 85 182 17 37 45 97 62 135 18 37 79 168 137 292 57 124
116 250 129 280 14 30 46 98 70 150 25 52 57 120 70 150 14 30 71 152 126 270
55 118 115 249 134 290 20 41 53 113 75 160 22 47 54 114 70 150 69 151 112
244 197 424 28 59 51 110 51 111 0 2 27 61 61 132 59 125 95 202 147 313 31
67 66 140 69 140 0 0 0 -2087 0 -4637z m-11509 4540 c11 -27 43 -95 70 -153
27 -58 62 -132 77 -165 47 -102 91 -196 130 -280 20 -44 50 -109 67 -145 16
-36 42 -92 58 -125 15 -33 103 -222 195 -420 230 -494 226 -487 284 -609 28
-59 51 -110 51 -112 0 -2 26 -58 59 -126 32 -68 70 -148 84 -178 13 -30 55
-120 92 -200 37 -80 96 -206 130 -280 34 -74 81 -173 103 -220 22 -47 51 -110
65 -140 14 -30 46 -100 72 -155 26 -55 56 -120 67 -145 11 -25 45 -96 74 -158
30 -63 54 -115 54 -117 0 -2 20 -45 44 -97 63 -134 120 -256 186 -398 76 -164
125 -270 162 -350 91 -194 290 -622 398 -855 34 -74 143 -308 200 -430 23 -49
67 -144 97 -210 31 -66 82 -176 114 -244 33 -68 59 -125 59 -127 0 -1 24 -53
54 -116 29 -62 65 -138 78 -168 14 -30 56 -120 93 -200 37 -80 83 -179 102
-220 55 -117 102 -219 138 -295 18 -38 45 -97 60 -130 15 -33 52 -111 81 -173
30 -63 54 -115 54 -117 0 -2 25 -56 56 -121 31 -66 109 -234 174 -374 65 -140
139 -299 164 -353 25 -54 66 -144 92 -200 25 -56 49 -109 55 -117 5 -8 14 -26
21 -40 37 -82 48 -107 48 -112 0 -3 -965 -6 -2145 -6 -1970 1 -2145 2 -2146
17 -4 112 -2 9211 2 9211 4 0 16 -21 27 -47z"/>
</g>
</svg>
